<svg xmlns="http://www.w3.org/2000/svg" width="26.922" height="26.922" viewBox="0 0 26.922 26.922">
  <path id="Path_17" data-name="Path 17" d="M383.1,2243.078v-13.29h18.721v3.332a8.779,8.779,0,0,1,2.024.516V2226.1a1.489,1.489,0,0,0-1.488-1.489h-2.306v-1.21a1.049,1.049,0,0,0-.955-1.065,1.01,1.01,0,0,0-1.062.954c0,.019,0,.036,0,.054v1.267H386.891v-1.21a1.049,1.049,0,0,0-.955-1.065,1.01,1.01,0,0,0-1.062.954c0,.019,0,.036,0,.054v1.267h-2.306a1.489,1.489,0,0,0-1.489,1.489v17.514a1.489,1.489,0,0,0,1.489,1.489h9.814a8.8,8.8,0,0,1-.516-2.024Zm14.931-17.176v.359a1.009,1.009,0,0,0,2.019,0h0v-.359a1.644,1.644,0,1,1-2.019,0Zm-13.161,0v.359a1.009,1.009,0,0,0,2.019,0h0v-.359a1.644,1.644,0,1,1-2.019,0Zm15.785,8.668a7.342,7.342,0,1,0,7.342,7.341,7.341,7.341,0,0,0-7.342-7.341Zm3.467,5.894-3.014,2a.783.783,0,0,1-.986-.1l-3.067-3.064-.4-.4a.7.7,0,1,1,.991-.993h0l.4.4,2.708,2.7,2.593-1.717a.7.7,0,1,1,.777,1.172Z" transform="translate(-381.078 -2222.332)" fill="#dedede"/>
</svg>
