<svg xmlns="http://www.w3.org/2000/svg" width="19.716" height="26.9" viewBox="0 0 19.716 26.9">
  <g id="Group_20" data-name="Group 20" transform="translate(-228.758 -701.002)">
    <path id="Path_12" data-name="Path 12" d="M677.028,2248.987H663.946a3.64,3.64,0,0,1-3.317-3.874V2225.92a3.633,3.633,0,0,1,3.317-3.833h13.082a3.64,3.64,0,0,1,3.316,3.874v19.233A3.627,3.627,0,0,1,677.028,2248.987Zm-13.082-24.923a1.739,1.739,0,0,0-1.589,1.856h0v19.233a1.738,1.738,0,0,0,1.589,1.856h13.082a1.738,1.738,0,0,0,1.589-1.856V2225.92a1.739,1.739,0,0,0-1.589-1.856Z" transform="translate(-431.871 -1521.085)" fill="#c2bbe9"/>
    <path id="Path_13" data-name="Path 13" d="M686.579,2246.122h-9.006a1.021,1.021,0,0,1,0-2.017h9.006a1.021,1.021,0,0,1,0,2.017Z" transform="translate(-443.461 -1535.921)" fill="#c2bbe9"/>
    <path id="Path_14" data-name="Path 14" d="M686.579,2262.244h-9.006a1.021,1.021,0,0,1,0-2.018h9.006a1.021,1.021,0,0,1,0,2.018Z" transform="translate(-443.461 -1546.783)" fill="#c2bbe9"/>
    <path id="Path_15" data-name="Path 15" d="M686.579,2278.365h-9.006a1.021,1.021,0,0,1,0-2.018h9.006a1.021,1.021,0,0,1,0,2.018Z" transform="translate(-443.461 -1557.645)" fill="#c2bbe9"/>
  </g>
</svg>
