<svg xmlns="http://www.w3.org/2000/svg" width="26.922" height="26.922" viewBox="0 0 26.922 26.922">
  <g id="Group_23" data-name="Group 23" transform="translate(-325.892 -701.325)">
    <path id="Path_10" data-name="Path 10" d="M968.6,2243.783a5.784,5.784,0,1,0-5.784-5.784A5.791,5.791,0,0,0,968.6,2243.783Zm0-9.8a4.013,4.013,0,1,1-4.013,4.013A4.018,4.018,0,0,1,968.6,2233.987Z" transform="translate(-629.247 -1527.633)" fill="#dedede"/>
    <path id="Path_11" data-name="Path 11" d="M954.6,2223.022a13.461,13.461,0,1,0,13.461,13.461A13.476,13.476,0,0,0,954.6,2223.022Zm0,1.771a11.685,11.685,0,0,1,10.3,17.206,6.863,6.863,0,0,0-5.766-3.1h-9.075a6.878,6.878,0,0,0-5.766,3.1,11.685,11.685,0,0,1,10.3-17.206Zm0,23.38a11.673,11.673,0,0,1-9.208-4.5,5.112,5.112,0,0,1,4.671-3h9.075a5.106,5.106,0,0,1,4.672,3A11.675,11.675,0,0,1,954.6,2248.173Z" transform="translate(-615.252 -1521.697)" fill="#dedede"/>
  </g>
</svg>
